<svg xmlns:xlink="http://www.w3.org/1999/xlink" aria-hidden="true" class="SVGInline-svg SVGInline--cleaned-svg SVG-svg Icon-svg Icon--platform-svg Icon-color-svg Icon-color--blue-svg" height="32" width="32" xmlns="http://www.w3.org/2000/svg" viewBox="0 0 16 16"><path d="m1.253 10.875 5.376 2.29a3.496 3.496 0 0 0 2.742 0l5.376-2.29.635.27a1.026 1.026 0 0 1 0 1.884l-6.598 2.81a1.997 1.997 0 0 1-1.568 0L.618 13.03a1.026 1.026 0 0 1 0-1.884l.635-.27zm13.494-4.087.635.27a1.026 1.026 0 0 1 0 1.884l-6.598 2.811a1.997 1.997 0 0 1-1.568 0L.618 8.942a1.026 1.026 0 0 1 0-1.884l.635-.27 5.376 2.29a3.496 3.496 0 0 0 2.742 0l5.376-2.29zM8.784.16l6.598 2.811a1.026 1.026 0 0 1 0 1.884L8.784 7.666a1.997 1.997 0 0 1-1.568 0L.618 4.855a1.026 1.026 0 0 1 0-1.884L7.216.161a1.997 1.997 0 0 1 1.568 0z" fill="#6C8EEF"></path></svg>