<svg xmlns:xlink="http://www.w3.org/1999/xlink" class="SVGInline-svg SVGInline--cleaned-svg SVG-svg ProductIcon-svg" height="32" width="32" viewBox="0 0 40 40" fill="none" xmlns="http://www.w3.org/2000/svg"><path d="M29 14.5c0-.358-.074-.711-.218-1.038l-3.92-8.945A2.52 2.52 0 0 0 22.556 3H2.522C1.129 3 0 4.144 0 5.556v17.888C0 24.856 1.129 26 2.522 26h20.035c.996 0 1.9-.595 2.304-1.517l3.921-8.945c.144-.327.218-.68.218-1.038Z" fill="url(&quot;#pi_treasury__a&quot;)"></path><path d="M11 25.5c0 .358.074.711.217 1.038l3.922 8.945A2.52 2.52 0 0 0 17.443 37h20.035C38.871 37 40 35.856 40 34.444V16.556C40 15.144 38.871 14 37.478 14H17.443c-.996 0-1.9.595-2.304 1.517l-3.921 8.945c-.144.327-.218.68-.218 1.038Z" fill="#00D924"></path><path d="M28.951 13.999a2.586 2.586 0 0 1-.169 1.54l-3.92 8.944A2.52 2.52 0 0 1 22.556 26H11.049a2.587 2.587 0 0 1 .168-1.54l3.922-8.944A2.52 2.52 0 0 1 17.443 14l11.508-.001Z" fill="url(&quot;#pi_treasury__b&quot;)"></path><defs><linearGradient id="pi_treasury__a" x1="14.5" y1="6.131" x2="14.5" y2="28.22" gradientUnits="userSpaceOnUse"><stop stop-color="#11EFE3"></stop><stop offset="0.35" stop-color="#14E8E2"></stop><stop offset="0.86" stop-color="#1ED6E1"></stop><stop offset="1" stop-color="#21CFE0"></stop></linearGradient><linearGradient id="pi_treasury__b" x1="25.311" y1="29.5" x2="25.311" y2="9" gradientUnits="userSpaceOnUse"><stop stop-color="#00D924"></stop><stop offset="1" stop-color="#00A600"></stop></linearGradient><linearGradient id="pi_treasury__a" x1="14.5" y1="6.131" x2="14.5" y2="28.22" gradientUnits="userSpaceOnUse"><stop stop-color="#11EFE3"></stop><stop offset="0.35" stop-color="#14E8E2"></stop><stop offset="0.86" stop-color="#1ED6E1"></stop><stop offset="1" stop-color="#21CFE0"></stop></linearGradient><linearGradient id="pi_treasury__b" x1="25.311" y1="29.5" x2="25.311" y2="9" gradientUnits="userSpaceOnUse"><stop stop-color="#00D924"></stop><stop offset="1" stop-color="#00A600"></stop></linearGradient><linearGradient id="pi_treasury__a" x1="14.5" y1="6.131" x2="14.5" y2="28.22" gradientUnits="userSpaceOnUse"><stop stop-color="#11EFE3"></stop><stop offset="0.35" stop-color="#14E8E2"></stop><stop offset="0.86" stop-color="#1ED6E1"></stop><stop offset="1" stop-color="#21CFE0"></stop></linearGradient><linearGradient id="pi_treasury__b" x1="25.311" y1="29.5" x2="25.311" y2="9" gradientUnits="userSpaceOnUse"><stop stop-color="#00D924"></stop><stop offset="1" stop-color="#00A600"></stop></linearGradient></defs></svg>