<svg xmlns:xlink="http://www.w3.org/1999/xlink" class="SVGInline-svg SVGInline--cleaned-svg SVG-svg ProductIcon-svg" height="32" width="32" viewBox="0 0 40 40" fill="none" xmlns="http://www.w3.org/2000/svg"><path d="M20.02 1c.977 0 1.869.552 2.305 1.426l8.008 16.016 8.436 16.878a2.577 2.577 0 0 1-2.126 3.724l-.178.007-16.444-3.27L9.709 18.44l8.008-16.015A2.574 2.574 0 0 1 20.021 1Z" fill="#FFBB00"></path><path d="M20.02 1c.977 0 1.869.552 2.304 1.426l8.008 16.016L20.02 35.78 3.576 39.05a2.577 2.577 0 0 1-2.304-3.731L9.71 18.442l8.008-16.016A2.574 2.574 0 0 1 20.02 1Z" fill="url(&quot;#pi_atlas__a&quot;)"></path><path d="M20.02 1c.977 0 1.869.552 2.305 1.426l8.008 16.016L20.02 35.78 9.709 18.44l8.008-16.015a2.574 2.574 0 0 1 2.122-1.42L20.02 1Z" fill="url(&quot;#pi_atlas__b&quot;)"></path><defs><linearGradient id="pi_atlas__a" x1="15.65" y1="18.261" x2="15.564" y2="39.05" gradientUnits="userSpaceOnUse"><stop stop-color="#FFD748"></stop><stop offset="0.536" stop-color="#FFCD48"></stop><stop offset="1" stop-color="#FFCB48"></stop></linearGradient><linearGradient id="pi_atlas__b" x1="20.023" y1="34.561" x2="20.023" y2="15.338" gradientUnits="userSpaceOnUse"><stop stop-color="#FFAD00"></stop><stop offset="1" stop-color="#FF7600"></stop></linearGradient><linearGradient id="pi_atlas__a" x1="15.65" y1="18.261" x2="15.564" y2="39.05" gradientUnits="userSpaceOnUse"><stop stop-color="#FFD748"></stop><stop offset="0.536" stop-color="#FFCD48"></stop><stop offset="1" stop-color="#FFCB48"></stop></linearGradient><linearGradient id="pi_atlas__b" x1="20.023" y1="34.561" x2="20.023" y2="15.338" gradientUnits="userSpaceOnUse"><stop stop-color="#FFAD00"></stop><stop offset="1" stop-color="#FF7600"></stop></linearGradient><linearGradient id="pi_atlas__a" x1="15.65" y1="18.261" x2="15.564" y2="39.05" gradientUnits="userSpaceOnUse"><stop stop-color="#FFD748"></stop><stop offset="0.536" stop-color="#FFCD48"></stop><stop offset="1" stop-color="#FFCB48"></stop></linearGradient><linearGradient id="pi_atlas__b" x1="20.023" y1="34.561" x2="20.023" y2="15.338" gradientUnits="userSpaceOnUse"><stop stop-color="#FFAD00"></stop><stop offset="1" stop-color="#FF7600"></stop></linearGradient></defs></svg>