<svg xmlns:xlink="http://www.w3.org/1999/xlink" class="SVGInline-svg SVGInline--cleaned-svg SVG-svg ProductIcon-svg" height="32" width="32" viewBox="0 0 40 40" fill="none" xmlns="http://www.w3.org/2000/svg"><path d="M34.613 11.275a2.563 2.563 0 0 0-1.223-1.031L8.545.19a2.574 2.574 0 0 0-2.409.252A2.582 2.582 0 0 0 5 2.584V15c0 1.053.638 2 1.613 2.394L13.053 20l21.56 8.722c.254-.409.388-.881.387-1.363V12.637a2.566 2.566 0 0 0-.387-1.362Z" fill="url(&quot;#pi_payments__a&quot;)"></path><path d="M34.625 11.278 13.06 20l-6.446 2.61A2.578 2.578 0 0 0 5 25v12.416a2.576 2.576 0 0 0 3.543 2.394l24.858-10.054a2.54 2.54 0 0 0 1.212-1.037c.254-.41.388-.881.387-1.363V12.641a2.566 2.566 0 0 0-.375-1.363Z" fill="#9966FF"></path><path d="m34.617 11.282.097.172c.189.365.287.77.286 1.184l-.001-.023v14.741c.001.482-.133.954-.387 1.363l-.001.001-21.554-8.719h.003l21.557-8.719Z" fill="url(&quot;#pi_payments__b&quot;)"></path><defs><linearGradient id="pi_payments__a" x1="20" y1="4.128" x2="20" y2="21.128" gradientUnits="userSpaceOnUse"><stop stop-color="#11EFE3"></stop><stop offset="1" stop-color="#21CFE0"></stop></linearGradient><linearGradient id="pi_payments__b" x1="35" y1="11.282" x2="35" y2="28.72" gradientUnits="userSpaceOnUse"><stop stop-color="#0048E5"></stop><stop offset="1" stop-color="#9B66FF"></stop></linearGradient><linearGradient id="pi_payments__a" x1="20" y1="4.128" x2="20" y2="21.128" gradientUnits="userSpaceOnUse"><stop stop-color="#11EFE3"></stop><stop offset="1" stop-color="#21CFE0"></stop></linearGradient><linearGradient id="pi_payments__b" x1="35" y1="11.282" x2="35" y2="28.72" gradientUnits="userSpaceOnUse"><stop stop-color="#0048E5"></stop><stop offset="1" stop-color="#9B66FF"></stop></linearGradient><linearGradient id="pi_payments__a" x1="20" y1="4.128" x2="20" y2="21.128" gradientUnits="userSpaceOnUse"><stop stop-color="#11EFE3"></stop><stop offset="1" stop-color="#21CFE0"></stop></linearGradient><linearGradient id="pi_payments__b" x1="35" y1="11.282" x2="35" y2="28.72" gradientUnits="userSpaceOnUse"><stop stop-color="#0048E5"></stop><stop offset="1" stop-color="#9B66FF"></stop></linearGradient></defs></svg>