<svg xmlns:xlink="http://www.w3.org/1999/xlink" class="SVGInline-svg SVGInline--cleaned-svg SVG-svg ProductIcon-svg" height="32" width="32" viewBox="0 0 40 40" fill="none" xmlns="http://www.w3.org/2000/svg"><path d="m23.955 14.047-9.744 2.12-12.18 2.525C.811 18.995 0 20.005 0 21.217v16.258A2.507 2.507 0 0 0 2.538 40H27V16.571a2.546 2.546 0 0 0-3.045-2.524Z" fill="url(&quot;#pi_capital__a&quot;)"></path><path d="M36.853.046 15.03 4.652c-1.218.3-2.03 1.302-2.03 2.504V40h24.462C38.883 39.8 40 38.698 40 37.296V2.55C40 .947 38.477-.254 36.853.046Z" fill="url(&quot;#pi_capital__b&quot;)"></path><path d="M23.955 14.047A2.546 2.546 0 0 1 27 16.57V40H13V16.418l1.21-.25 9.745-2.121Z" fill="url(&quot;#pi_capital__c&quot;)"></path><defs><linearGradient id="pi_capital__a" x1="13.523" y1="36.347" x2="13.523" y2="18.211" gradientUnits="userSpaceOnUse"><stop stop-color="#00D0E1"></stop><stop offset="1" stop-color="#00F5E7"></stop></linearGradient><linearGradient id="pi_capital__b" x1="26.459" y1="-0.002" x2="26.459" y2="40" gradientUnits="userSpaceOnUse"><stop stop-color="#00D924"></stop><stop offset="1" stop-color="#00D924"></stop></linearGradient><linearGradient id="pi_capital__c" x1="19.93" y1="40.003" x2="19.93" y2="13.997" gradientUnits="userSpaceOnUse"><stop stop-color="#00D722"></stop><stop offset="0.851" stop-color="#00BD01"></stop></linearGradient><linearGradient id="pi_capital__a" x1="13.523" y1="36.347" x2="13.523" y2="18.211" gradientUnits="userSpaceOnUse"><stop stop-color="#00D0E1"></stop><stop offset="1" stop-color="#00F5E7"></stop></linearGradient><linearGradient id="pi_capital__b" x1="26.459" y1="-0.002" x2="26.459" y2="40" gradientUnits="userSpaceOnUse"><stop stop-color="#00D924"></stop><stop offset="1" stop-color="#00D924"></stop></linearGradient><linearGradient id="pi_capital__c" x1="19.93" y1="40.003" x2="19.93" y2="13.997" gradientUnits="userSpaceOnUse"><stop stop-color="#00D722"></stop><stop offset="0.851" stop-color="#00BD01"></stop></linearGradient><linearGradient id="pi_capital__a" x1="13.523" y1="36.347" x2="13.523" y2="18.211" gradientUnits="userSpaceOnUse"><stop stop-color="#00D0E1"></stop><stop offset="1" stop-color="#00F5E7"></stop></linearGradient><linearGradient id="pi_capital__b" x1="26.459" y1="-0.002" x2="26.459" y2="40" gradientUnits="userSpaceOnUse"><stop stop-color="#00D924"></stop><stop offset="1" stop-color="#00D924"></stop></linearGradient><linearGradient id="pi_capital__c" x1="19.93" y1="40.003" x2="19.93" y2="13.997" gradientUnits="userSpaceOnUse"><stop stop-color="#00D722"></stop><stop offset="0.851" stop-color="#00BD01"></stop></linearGradient></defs></svg>