<svg xmlns:xlink="http://www.w3.org/1999/xlink" class="SVGInline-svg SVGInline--cleaned-svg SVG-svg ProductIcon-svg" height="32" width="32" viewBox="0 0 40 40" fill="none" xmlns="http://www.w3.org/2000/svg"><path d="M33.237 21.088c-4.275 0-9.087-2.963-13.237-5.813-4.4-3.037-9.238-7.05-13.238-7.05C2.675 8.225 0 11.963 0 15.275v.288c0 11.045 8.954 20 20 20s20-8.955 20-20c-.134 2.68-2.031 5.525-6.763 5.525Z" fill="url(&quot;#pi_climate__a&quot;)"></path><path d="M33.237 8.238c-4 0-8.837 4-13.237 7.037-4.15 2.85-8.963 5.813-13.238 5.813-4.73 0-6.628-2.844-6.762-5.525 0 11.045 8.954 20 20 20s20-8.955 20-20v-.288c0-3.312-2.675-7.05-6.763-7.037Z" fill="url(&quot;#pi_climate__b&quot;)"></path><path d="M20 15.275c4.15 2.85 8.962 5.813 13.237 5.813 4.732 0 6.629-2.844 6.763-5.525 0 11.045-8.954 20-20 20s-20-8.955-20-20c.134 2.68 2.031 5.525 6.763 5.525 4.274 0 9.087-2.963 13.237-5.813Z" fill="url(&quot;#pi_climate__c&quot;)"></path><defs><linearGradient id="pi_climate__a" x1="19.997" y1="20.628" x2="19.997" y2="9.573" gradientUnits="userSpaceOnUse"><stop stop-color="#FFD748"></stop><stop offset="0.21" stop-color="#FFD644"></stop><stop offset="0.33" stop-color="#FFD438"></stop><stop offset="0.45" stop-color="#FFD024"></stop><stop offset="0.57" stop-color="#FFCB09"></stop><stop offset="1" stop-color="#FFC900"></stop></linearGradient><linearGradient id="pi_climate__b" x1="20" y1="9.561" x2="20" y2="21.9" gradientUnits="userSpaceOnUse"><stop stop-color="#009C00"></stop><stop offset="1" stop-color="#00BA18"></stop></linearGradient><linearGradient id="pi_climate__c" x1="20" y1="35.275" x2="20" y2="15.275" gradientUnits="userSpaceOnUse"><stop offset="0.13" stop-color="#00CB1B"></stop><stop offset="1" stop-color="#00D924"></stop></linearGradient><linearGradient id="pi_climate__a" x1="19.997" y1="20.628" x2="19.997" y2="9.573" gradientUnits="userSpaceOnUse"><stop stop-color="#FFD748"></stop><stop offset="0.21" stop-color="#FFD644"></stop><stop offset="0.33" stop-color="#FFD438"></stop><stop offset="0.45" stop-color="#FFD024"></stop><stop offset="0.57" stop-color="#FFCB09"></stop><stop offset="1" stop-color="#FFC900"></stop></linearGradient><linearGradient id="pi_climate__b" x1="20" y1="9.561" x2="20" y2="21.9" gradientUnits="userSpaceOnUse"><stop stop-color="#009C00"></stop><stop offset="1" stop-color="#00BA18"></stop></linearGradient><linearGradient id="pi_climate__c" x1="20" y1="35.275" x2="20" y2="15.275" gradientUnits="userSpaceOnUse"><stop offset="0.13" stop-color="#00CB1B"></stop><stop offset="1" stop-color="#00D924"></stop></linearGradient><linearGradient id="pi_climate__a" x1="19.997" y1="20.628" x2="19.997" y2="9.573" gradientUnits="userSpaceOnUse"><stop stop-color="#FFD748"></stop><stop offset="0.21" stop-color="#FFD644"></stop><stop offset="0.33" stop-color="#FFD438"></stop><stop offset="0.45" stop-color="#FFD024"></stop><stop offset="0.57" stop-color="#FFCB09"></stop><stop offset="1" stop-color="#FFC900"></stop></linearGradient><linearGradient id="pi_climate__b" x1="20" y1="9.561" x2="20" y2="21.9" gradientUnits="userSpaceOnUse"><stop stop-color="#009C00"></stop><stop offset="1" stop-color="#00BA18"></stop></linearGradient><linearGradient id="pi_climate__c" x1="20" y1="35.275" x2="20" y2="15.275" gradientUnits="userSpaceOnUse"><stop offset="0.13" stop-color="#00CB1B"></stop><stop offset="1" stop-color="#00D924"></stop></linearGradient></defs></svg>