<svg xmlns:xlink="http://www.w3.org/1999/xlink" class="SVGInline-svg SVGInline--cleaned-svg SVG-svg ProductIcon-svg" height="32" width="32" viewBox="0 0 40 40" fill="none" xmlns="http://www.w3.org/2000/svg"><path d="m36.981 14.055-6.312 1.356L9.33 19.995l-7.35 1.58A2.521 2.521 0 0 0 0 24.05v13.423C0 38.868 1.12 40 2.5 40h35c1.38 0 2.5-1.132 2.5-2.528V16.526c0-.762-.341-1.483-.927-1.963a2.48 2.48 0 0 0-2.092-.508Z" fill="#9B66FF"></path><path d="M28.59 0H11.578C10.154 0 9 1.12 9 2.5v25c0 1.38 1.154 2.5 2.578 2.5h16.844C29.846 30 31 28.88 31 27.5v-25C31 1.12 29.846 0 28.59 0Z" fill="url(&quot;#pi_terminal__a&quot;)"></path><path d="M31 15.339V27.5c0 1.38-1.154 2.5-2.578 2.5H11.578C10.154 30 9 28.88 9 27.5v-7.434l.331-.07L30.67 15.41l.331-.072Z" fill="url(&quot;#pi_terminal__b&quot;)"></path><defs><linearGradient id="pi_terminal__a" x1="20" y1="1.97" x2="20" y2="17.601" gradientUnits="userSpaceOnUse"><stop stop-color="#11EFE3"></stop><stop offset="0.33" stop-color="#15E8E2"></stop><stop offset="0.74" stop-color="#1FD3E0"></stop><stop offset="1" stop-color="#21CFE0"></stop></linearGradient><linearGradient id="pi_terminal__b" x1="31" y1="22.669" x2="5.337" y2="22.669" gradientUnits="userSpaceOnUse"><stop stop-color="#0048E5"></stop><stop offset="0.64" stop-color="#625AF5"></stop><stop offset="1" stop-color="#8A62FC"></stop></linearGradient><linearGradient id="pi_terminal__a" x1="20" y1="1.97" x2="20" y2="17.601" gradientUnits="userSpaceOnUse"><stop stop-color="#11EFE3"></stop><stop offset="0.33" stop-color="#15E8E2"></stop><stop offset="0.74" stop-color="#1FD3E0"></stop><stop offset="1" stop-color="#21CFE0"></stop></linearGradient><linearGradient id="pi_terminal__b" x1="31" y1="22.669" x2="5.337" y2="22.669" gradientUnits="userSpaceOnUse"><stop stop-color="#0048E5"></stop><stop offset="0.64" stop-color="#625AF5"></stop><stop offset="1" stop-color="#8A62FC"></stop></linearGradient><linearGradient id="pi_terminal__a" x1="20" y1="1.97" x2="20" y2="17.601" gradientUnits="userSpaceOnUse"><stop stop-color="#11EFE3"></stop><stop offset="0.33" stop-color="#15E8E2"></stop><stop offset="0.74" stop-color="#1FD3E0"></stop><stop offset="1" stop-color="#21CFE0"></stop></linearGradient><linearGradient id="pi_terminal__b" x1="31" y1="22.669" x2="5.337" y2="22.669" gradientUnits="userSpaceOnUse"><stop stop-color="#0048E5"></stop><stop offset="0.64" stop-color="#625AF5"></stop><stop offset="1" stop-color="#8A62FC"></stop></linearGradient></defs></svg>