<svg xmlns:xlink="http://www.w3.org/1999/xlink" class="SVGInline-svg SVGInline--cleaned-svg SVG-svg ProductIcon-svg" height="32" width="32" viewBox="0 0 40 40" fill="none" xmlns="http://www.w3.org/2000/svg"><path d="M26 3.465A2.467 2.467 0 0 0 23.53 1H2.47A2.467 2.467 0 0 0 0 3.465v30.07c0 .835.423 1.612 1.124 2.067a2.475 2.475 0 0 0 2.35.185l10.188-4.522 10.871-4.831A2.465 2.465 0 0 0 26 24.18V3.465Z" fill="url(&quot;#pi_subscriptions__a&quot;)"></path><path d="M26.5 40C33.956 40 40 33.956 40 26.5S33.956 13 26.5 13 13 19.044 13 26.5 19.044 40 26.5 40Z" fill="#00D924"></path><path d="M26 13.009v11.172c0 .974-.575 1.857-1.467 2.252l-10.697 4.755A13.49 13.49 0 0 1 13 26.5c0-7.288 5.776-13.228 13-13.491Z" fill="url(&quot;#pi_subscriptions__b&quot;)"></path><defs><linearGradient id="pi_subscriptions__a" x1="13" y1="7.353" x2="13.001" y2="36.032" gradientUnits="userSpaceOnUse"><stop stop-color="#FFD748"></stop><stop offset="1" stop-color="#FFC148"></stop></linearGradient><linearGradient id="pi_subscriptions__b" x1="19.5" y1="13.009" x2="19.5" y2="31.188" gradientUnits="userSpaceOnUse"><stop stop-color="#00A600"></stop><stop offset="1" stop-color="#00D924"></stop></linearGradient><linearGradient id="pi_subscriptions__a" x1="13" y1="7.353" x2="13.001" y2="36.032" gradientUnits="userSpaceOnUse"><stop stop-color="#FFD748"></stop><stop offset="1" stop-color="#FFC148"></stop></linearGradient><linearGradient id="pi_subscriptions__b" x1="19.5" y1="13.009" x2="19.5" y2="31.188" gradientUnits="userSpaceOnUse"><stop stop-color="#00A600"></stop><stop offset="1" stop-color="#00D924"></stop></linearGradient><linearGradient id="pi_subscriptions__a" x1="13" y1="7.353" x2="13.001" y2="36.032" gradientUnits="userSpaceOnUse"><stop stop-color="#FFD748"></stop><stop offset="1" stop-color="#FFC148"></stop></linearGradient><linearGradient id="pi_subscriptions__b" x1="19.5" y1="13.009" x2="19.5" y2="31.188" gradientUnits="userSpaceOnUse"><stop stop-color="#00A600"></stop><stop offset="1" stop-color="#00D924"></stop></linearGradient></defs></svg>