<svg xmlns:xlink="http://www.w3.org/1999/xlink" class="SVGInline-svg SVGInline--cleaned-svg SVG-svg ProductIcon-svg" height="32" width="32" viewBox="0 0 40 40" fill="none" xmlns="http://www.w3.org/2000/svg"><path d="M31.535 4H11.837c-.842 0-1.627.43-2.084 1.143a2.522 2.522 0 0 0-.18 2.387l5.1 11.456a2.483 2.483 0 0 1 0 2.028L8 36h23.535a2.48 2.48 0 0 0 2.262-1.48l5.987-13.497a2.524 2.524 0 0 0 0-2.043l-5.987-13.5A2.48 2.48 0 0 0 31.536 4Z" fill="#9966FF"></path><path d="M7.228 36a2.309 2.309 0 0 1-.868-.166 1.22 1.22 0 0 1-.111-.056h.043A2.434 2.434 0 0 1 5.06 34.55L.217 23.533a2.542 2.542 0 0 1 .177-2.388A2.453 2.453 0 0 1 2.461 20h19.507c.959 0 1.828.573 2.22 1.462l4.794 10.849c.198.45.564 1.271.684 1.531.103.214.232.414.385.595.489.648 1.202 1.305 1.977 1.516a2.239 2.239 0 0 1-.545.047c-.21 0-.296-.002-.35-.003h-.055a1.32 1.32 0 0 0-.06.003H7.228Z" fill="url(&quot;#pi_checkout__a&quot;)"></path><path d="M21.968 20a2.43 2.43 0 0 1 2.141 1.3l.08.162 4.793 10.849c.198.45.564 1.271.684 1.531.103.214.232.414.385.595.448.594 1.19 1.165 1.908 1.42l.195.06a2.353 2.353 0 0 1-.619.083h-.462l-.055.001L8 35.999l6.673-14.985A2.48 2.48 0 0 0 14.889 20h7.079Z" fill="url(&quot;#pi_checkout__b&quot;)"></path><defs><linearGradient id="pi_checkout__a" x1="16.008" y1="35.587" x2="16.008" y2="21.16" gradientUnits="userSpaceOnUse"><stop stop-color="#21CFE0"></stop><stop offset="0.17" stop-color="#20D1E0"></stop><stop offset="0.38" stop-color="#18E2E2"></stop><stop offset="0.61" stop-color="#13ECE3"></stop><stop offset="1" stop-color="#11EFE3"></stop></linearGradient><linearGradient id="pi_checkout__b" x1="21.066" y1="43" x2="21.066" y2="14.5" gradientUnits="userSpaceOnUse"><stop stop-color="#0048E5"></stop><stop offset="1" stop-color="#9B66FF"></stop></linearGradient><linearGradient id="pi_checkout__a" x1="16.008" y1="35.587" x2="16.008" y2="21.16" gradientUnits="userSpaceOnUse"><stop stop-color="#21CFE0"></stop><stop offset="0.17" stop-color="#20D1E0"></stop><stop offset="0.38" stop-color="#18E2E2"></stop><stop offset="0.61" stop-color="#13ECE3"></stop><stop offset="1" stop-color="#11EFE3"></stop></linearGradient><linearGradient id="pi_checkout__b" x1="21.066" y1="43" x2="21.066" y2="14.5" gradientUnits="userSpaceOnUse"><stop stop-color="#0048E5"></stop><stop offset="1" stop-color="#9B66FF"></stop></linearGradient><linearGradient id="pi_checkout__a" x1="16.008" y1="35.587" x2="16.008" y2="21.16" gradientUnits="userSpaceOnUse"><stop stop-color="#21CFE0"></stop><stop offset="0.17" stop-color="#20D1E0"></stop><stop offset="0.38" stop-color="#18E2E2"></stop><stop offset="0.61" stop-color="#13ECE3"></stop><stop offset="1" stop-color="#11EFE3"></stop></linearGradient><linearGradient id="pi_checkout__b" x1="21.066" y1="43" x2="21.066" y2="14.5" gradientUnits="userSpaceOnUse"><stop stop-color="#0048E5"></stop><stop offset="1" stop-color="#9B66FF"></stop></linearGradient></defs></svg>