<svg xmlns:xlink="http://www.w3.org/1999/xlink" class="SVGInline-svg SVGInline--cleaned-svg SVG-svg ProductIcon-svg" height="32" width="32" viewBox="0 0 40 40" fill="none" xmlns="http://www.w3.org/2000/svg"><path d="m20 9.667 7.57 8.69a2.5 2.5 0 0 1 0 3.285L20 30.333l-7.57-8.691a2.5 2.5 0 0 1 0-3.284L20 9.667Z" fill="url(&quot;#pi_financialconnections__a&quot;)"></path><path d="m20 30.333 4.188 4.809a2.5 2.5 0 0 0 1.886.858H34.5a2.5 2.5 0 0 0 2.5-2.5v-27A2.5 2.5 0 0 0 34.5 4h-8.426a2.5 2.5 0 0 0-1.886.858L20 9.667l7.57 8.691a2.5 2.5 0 0 1 0 3.284L20 30.333Z" fill="#00D924"></path><path d="m20 9.667-7.57 8.691a2.5 2.5 0 0 0 0 3.284L20 30.333l-4.188 4.809a2.5 2.5 0 0 1-1.886.858H5.5A2.5 2.5 0 0 1 3 33.5v-27A2.5 2.5 0 0 1 5.5 4h8.426a2.5 2.5 0 0 1 1.886.858L20 9.667Z" fill="url(&quot;#pi_financialconnections__b&quot;)"></path><defs><linearGradient id="pi_financialconnections__a" x1="4" y1="19.5" x2="41" y2="19.5" gradientUnits="userSpaceOnUse"><stop stop-color="#00D924"></stop><stop offset="1" stop-color="#00A600"></stop></linearGradient><linearGradient id="pi_financialconnections__b" x1="27.5" y1="20" x2="0.01" y2="19.472" gradientUnits="userSpaceOnUse"><stop stop-color="#11EFE3"></stop><stop offset="1" stop-color="#21CFE0"></stop></linearGradient><linearGradient id="pi_financialconnections__a" x1="4" y1="19.5" x2="41" y2="19.5" gradientUnits="userSpaceOnUse"><stop stop-color="#00D924"></stop><stop offset="1" stop-color="#00A600"></stop></linearGradient><linearGradient id="pi_financialconnections__b" x1="27.5" y1="20" x2="0.01" y2="19.472" gradientUnits="userSpaceOnUse"><stop stop-color="#11EFE3"></stop><stop offset="1" stop-color="#21CFE0"></stop></linearGradient><linearGradient id="pi_financialconnections__a" x1="4" y1="19.5" x2="41" y2="19.5" gradientUnits="userSpaceOnUse"><stop stop-color="#00D924"></stop><stop offset="1" stop-color="#00A600"></stop></linearGradient><linearGradient id="pi_financialconnections__b" x1="27.5" y1="20" x2="0.01" y2="19.472" gradientUnits="userSpaceOnUse"><stop stop-color="#11EFE3"></stop><stop offset="1" stop-color="#21CFE0"></stop></linearGradient></defs></svg>