<svg xmlns:xlink="http://www.w3.org/1999/xlink" class="SVGInline-svg SVGInline--cleaned-svg SVG-svg" height="16" width="16" xmlns="http://www.w3.org/2000/svg" viewBox="0 0 16 16"><g fill="none" fill-rule="evenodd"><path fill="#E25950" fill-rule="nonzero" d="M14 14H2a2 2 0 0 1-2-2V4a2 2 0 0 1 2-2h12a2 2 0 0 1 2 2v8a2 2 0 0 1-2 2Z"></path><path fill="#F6F9FC" fill-rule="nonzero" d="M0 11h16v1H0v-1Zm14 3H2a2 2 0 0 1-1.732-1h15.464A2 2 0 0 1 14 14ZM0 9h16v1H0V9Zm8-2h8v1H8V7Zm0-2h8v1H8V5Zm0-2h7.723c.171.295.277.634.277 1H8V3Z"></path><path fill="#E25950" fill-rule="nonzero" d="M14 14H2a2 2 0 0 1-2-2V8h1v4a1 1 0 0 0 1 1h12a1 1 0 0 0 1-1V4a1 1 0 0 0-1-1H8V2h6a2 2 0 0 1 2 2v8a2 2 0 0 1-2 2Z" opacity="0.1"></path><path fill="#43458B" fill-rule="nonzero" d="M0 8V3.714C0 2.768.796 2 1.778 2H8v6H0Z"></path><path fill="#FFFFFF" fill-rule="nonzero" d="M7.026 5.501a.5.5 0 1 1-1 0 .5.5 0 0 1 1 0ZM5.518 5a.5.5 0 1 1-.038-1 .5.5 0 0 1 .038 1Zm-.492.501a.5.5 0 1 1-1 0 .5.5 0 0 1 1 0ZM3.518 5a.5.5 0 1 1-.038-1 .5.5 0 0 1 .038 1Zm-.492.501a.5.5 0 1 1-1 0 .5.5 0 0 1 1 0Zm4-2a.5.5 0 1 1-1 0 .5.5 0 0 1 1 0Zm-2 0a.5.5 0 1 1-1 0 .5.5 0 0 1 1 0Zm-2 0a.5.5 0 1 1-1 0 .5.5 0 0 1 1 0Zm-1.507 1.5a.5.5 0 1 1-.038-.999.5.5 0 0 1 .038 1Zm.014 1A.5.5 0 1 1 1.57 7a.5.5 0 0 1-.037-1Zm2 0A.5.5 0 1 1 3.57 7a.5.5 0 0 1-.037-1Zm2 0A.5.5 0 1 1 5.57 7a.5.5 0 0 1-.037-1Z"></path><path fill="#FFFFFF" d="M6.533 7a.5.5 0 1 1 .037 1 .5.5 0 0 1-.037-1Zm-2 0a.5.5 0 1 1 .037 1 .5.5 0 0 1-.037-1Zm-2 0a.5.5 0 1 1 .037 1 .5.5 0 0 1-.037-1ZM.482 7a.5.5 0 1 1 .036 1 .5.5 0 0 1-.036-1Zm0-2a.5.5 0 1 1 .036 1 .5.5 0 0 1-.036-1Zm0-2a.5.5 0 1 1 .036 1 .5.5 0 0 1-.036-1Zm1-1a.5.5 0 1 1 .036 1 .5.5 0 0 1-.036-1Zm2 0a.5.5 0 1 1 .036 1 .5.5 0 0 1-.036-1Zm2 0a.5.5 0 1 1 .036 1 .5.5 0 0 1-.036-1Zm2 0a.5.5 0 1 1 .036 1 .5.5 0 0 1-.036-1Zm0 2a.5.5 0 1 1 .036 1 .5.5 0 0 1-.036-1Zm0 2a.5.5 0 1 1 .036 1 .5.5 0 0 1-.036-1Z" opacity="0.5"></path></g></svg>