<svg xmlns:xlink="http://www.w3.org/1999/xlink" class="SVGInline-svg SVGInline--cleaned-svg SVG-svg ProductIcon-svg" height="32" width="32" viewBox="0 0 40 40" fill="none" xmlns="http://www.w3.org/2000/svg"><path d="M24.453 3.377a2.374 2.374 0 0 0-4.06-1.675L3.577 18.493a2.374 2.374 0 0 0 1.686 4.061h4.75l14.44-14.427v-4.75Z" fill="url(&quot;#pi_revrec__a&quot;)"></path><path d="M33.763 8.126h-9.31V20.18a2.375 2.375 0 0 1-2.375 2.375H10.014v14.071A2.375 2.375 0 0 0 12.389 39h21.374a2.375 2.375 0 0 0 2.375-2.375V10.501a2.375 2.375 0 0 0-2.375-2.375Z" fill="#9A66FF"></path><path d="M24.453 20.179V8.126l-14.44 14.428h12.065a2.375 2.375 0 0 0 2.375-2.375Z" fill="url(&quot;#pi_revrec__b&quot;)"></path><defs><linearGradient id="pi_revrec__a" x1="13.765" y1="1" x2="13.765" y2="22.353" gradientUnits="userSpaceOnUse"><stop offset="0.271" stop-color="#FF5091"></stop><stop offset="1" stop-color="#E03071"></stop></linearGradient><linearGradient id="pi_revrec__b" x1="16.03" y1="22.365" x2="24.272" y2="6.844" gradientUnits="userSpaceOnUse"><stop stop-color="#6E00F5"></stop><stop offset="1" stop-color="#9860FE"></stop></linearGradient><linearGradient id="pi_revrec__a" x1="13.765" y1="1" x2="13.765" y2="22.353" gradientUnits="userSpaceOnUse"><stop offset="0.271" stop-color="#FF5091"></stop><stop offset="1" stop-color="#E03071"></stop></linearGradient><linearGradient id="pi_revrec__b" x1="16.03" y1="22.365" x2="24.272" y2="6.844" gradientUnits="userSpaceOnUse"><stop stop-color="#6E00F5"></stop><stop offset="1" stop-color="#9860FE"></stop></linearGradient><linearGradient id="pi_revrec__a" x1="13.765" y1="1" x2="13.765" y2="22.353" gradientUnits="userSpaceOnUse"><stop offset="0.271" stop-color="#FF5091"></stop><stop offset="1" stop-color="#E03071"></stop></linearGradient><linearGradient id="pi_revrec__b" x1="16.03" y1="22.365" x2="24.272" y2="6.844" gradientUnits="userSpaceOnUse"><stop stop-color="#6E00F5"></stop><stop offset="1" stop-color="#9860FE"></stop></linearGradient></defs></svg>