<svg xmlns:xlink="http://www.w3.org/1999/xlink" class="SVGInline-svg SVGInline--cleaned-svg SVG-svg ProductIcon-svg" height="32" width="32" viewBox="0 0 36 40" fill="none" xmlns="http://www.w3.org/2000/svg"><path d="M17.05.01a26.947 26.947 0 0 1 17.73 9.035c.914 1.04.658 2.616-.462 3.43L18.526 23.948c-1.657 1.204-3.98.02-3.98-2.028V2.4c0-1.384 1.125-2.519 2.503-2.39Z" fill="url(&quot;#pi_tax__a&quot;)"></path><circle cx="15.667" cy="24.333" transform="rotate(-90 15.667 24.333)" fill="#9966FF" r="15.667"></circle><path d="m29.1 16.267-10.574 7.681c-1.657 1.204-3.98.02-3.98-2.028V8.706c.37-.026.744-.04 1.12-.04 5.703 0 10.693 3.047 13.433 7.6Z" fill="url(&quot;#pi_tax__b&quot;)"></path><defs><linearGradient id="pi_tax__a" x1="25.693" y1="-0.106" x2="25.693" y2="20.573" gradientUnits="userSpaceOnUse"><stop offset="0.237" stop-color="#FF5191"></stop><stop offset="1" stop-color="#E03071"></stop></linearGradient><linearGradient id="pi_tax__b" x1="21.307" y1="24.96" x2="16.841" y2="7.433" gradientUnits="userSpaceOnUse"><stop stop-color="#6E00F5"></stop><stop offset="1" stop-color="#9860FE"></stop></linearGradient><linearGradient id="pi_tax__a" x1="25.693" y1="-0.106" x2="25.693" y2="20.573" gradientUnits="userSpaceOnUse"><stop offset="0.237" stop-color="#FF5191"></stop><stop offset="1" stop-color="#E03071"></stop></linearGradient><linearGradient id="pi_tax__b" x1="21.307" y1="24.96" x2="16.841" y2="7.433" gradientUnits="userSpaceOnUse"><stop stop-color="#6E00F5"></stop><stop offset="1" stop-color="#9860FE"></stop></linearGradient><linearGradient id="pi_tax__a" x1="25.693" y1="-0.106" x2="25.693" y2="20.573" gradientUnits="userSpaceOnUse"><stop offset="0.237" stop-color="#FF5191"></stop><stop offset="1" stop-color="#E03071"></stop></linearGradient><linearGradient id="pi_tax__b" x1="21.307" y1="24.96" x2="16.841" y2="7.433" gradientUnits="userSpaceOnUse"><stop stop-color="#6E00F5"></stop><stop offset="1" stop-color="#9860FE"></stop></linearGradient></defs></svg>