<svg xmlns:xlink="http://www.w3.org/1999/xlink" class="SVGInline-svg SVGInline--cleaned-svg SVG-svg ProductIcon-svg" height="32" width="32" viewBox="0 0 40 40" fill="none" xmlns="http://www.w3.org/2000/svg"><path d="m7.623 26.479-.028-.029a2.437 2.437 0 0 1-.468-.675 2.507 2.507 0 0 1-.115-1.851l.003-.007a2.96 2.96 0 0 1 .231-.77l.089-.172L14.669 10h21.853c1.312.008 2.383 1.05 2.472 2.368l.006.166v22.92c0 1.35-1.029 2.454-2.33 2.54l-.163.006H19.052l.001-.002L19 38a2.5 2.5 0 0 0 .641-1.973c-.075-.659-.435-1.085-.955-1.468l-.145-.103-10.625-7.728-.137-.107-.004-.003.14.11a2.525 2.525 0 0 1-.263-.22l-.029-.03Z" fill="url(&quot;#pi_issuing__a&quot;)"></path><path d="M22.052 2.099a2.5 2.5 0 0 1 1.986.414L30.6 7.234a2.5 2.5 0 0 1 .916 2.803l.01-.038.001.001-8.513 25.999c-.012.063-.028.13-.047.194l-.032.092a2.483 2.483 0 0 1-.173.4l-.025.045c-.055.1-.117.196-.186.287l-.031.041a2.9 2.9 0 0 1-.227.255l-.029.022a2.062 2.062 0 0 1-.58.404l-.031.02a3.312 3.312 0 0 1-.315.13h-.047c-.11.035-.221.063-.335.082h-.044c-.12.02-.24.029-.362.029H3.527c-1.393 0-2.521-1.14-2.521-2.545v-22.91C1.006 11.14 2.134 10 3.526 10h13.08l3.807-6.706a2.5 2.5 0 0 1 1.453-1.148l.186-.047Z" fill="#0073E6"></path><path d="m31.384 10-8.37 25.999-.02.097-.027.097-.031.092a.857.857 0 0 1-.029.083l-.067.161-.078.157-.025.044-.088.147-.098.14-.031.041-.11.13-.117.125-.029.022c-.082.081-.17.155-.264.223l-.154.097-.161.084-.032.02-.156.069-.159.06h-.047l-.166.048-.086.018.088-.104a2.5 2.5 0 0 0 .514-1.823c-.075-.659-.435-1.085-.955-1.468l-.145-.103-10.625-7.728-.137-.107a2.536 2.536 0 0 1-.26-.252l-.04-.045a2.485 2.485 0 0 1-.116-.149l-.027-.038-.026-.038a2.429 2.429 0 0 1-.175-.306l-.026-.055a2.498 2.498 0 0 1-.146-.42l-.016-.066a2.504 2.504 0 0 1-.019-.093l-.012-.072a2.511 2.511 0 0 1 .051-1.011l.024-.085a2.506 2.506 0 0 1 .034-.105c.036-.25.108-.499.22-.735l.09-.176L16.669 10h14.715Z" fill="url(&quot;#pi_issuing__b&quot;)"></path><defs><linearGradient id="pi_issuing__a" x1="22.924" y1="11.681" x2="22.924" y2="39.684" gradientUnits="userSpaceOnUse"><stop offset="0.1" stop-color="#FF80FF"></stop><stop offset="0.39" stop-color="#FF7BF9"></stop><stop offset="0.77" stop-color="#FF6EEA"></stop><stop offset="1" stop-color="#FF62DC"></stop></linearGradient><linearGradient id="pi_issuing__b" x1="31.384" y1="27.925" x2="11.62" y2="27.925" gradientUnits="userSpaceOnUse"><stop stop-color="#0073E6"></stop><stop offset="1" stop-color="#00299C"></stop></linearGradient><linearGradient id="pi_issuing__a" x1="22.924" y1="11.681" x2="22.924" y2="39.684" gradientUnits="userSpaceOnUse"><stop offset="0.1" stop-color="#FF80FF"></stop><stop offset="0.39" stop-color="#FF7BF9"></stop><stop offset="0.77" stop-color="#FF6EEA"></stop><stop offset="1" stop-color="#FF62DC"></stop></linearGradient><linearGradient id="pi_issuing__b" x1="31.384" y1="27.925" x2="11.62" y2="27.925" gradientUnits="userSpaceOnUse"><stop stop-color="#0073E6"></stop><stop offset="1" stop-color="#00299C"></stop></linearGradient><linearGradient id="pi_issuing__a" x1="22.924" y1="11.681" x2="22.924" y2="39.684" gradientUnits="userSpaceOnUse"><stop offset="0.1" stop-color="#FF80FF"></stop><stop offset="0.39" stop-color="#FF7BF9"></stop><stop offset="0.77" stop-color="#FF6EEA"></stop><stop offset="1" stop-color="#FF62DC"></stop></linearGradient><linearGradient id="pi_issuing__b" x1="31.384" y1="27.925" x2="11.62" y2="27.925" gradientUnits="userSpaceOnUse"><stop stop-color="#0073E6"></stop><stop offset="1" stop-color="#00299C"></stop></linearGradient></defs></svg>