<svg xmlns:xlink="http://www.w3.org/1999/xlink" class="SVGInline-svg SVGInline--cleaned-svg SVG-svg ProductIcon-svg" height="32" width="32" viewBox="0 0 40 40" fill="none" xmlns="http://www.w3.org/2000/svg"><path d="M24.872 4.465a1.264 1.264 0 0 0-1.798.194l-4.613 5.824-15.03 18.97c.273.216.535.448.783.693.06.056.113.112.169.171.35.358.672.743.961 1.152l.094.134c.3.439.563.902.783 1.386.01.014.018.029.025.044l-.003-.003c.286.624.503 1.277.646 1.948a2.497 2.497 0 0 0 2.448 1.935h29.37a1.271 1.271 0 0 0 1.27-1.295A42.429 42.429 0 0 0 24.873 4.465Z" fill="#9A66FF"></path><path d="M27.803 21.983a33.817 33.817 0 0 0-9.34-11.503 34.514 34.514 0 0 0-12.51-6.202 1.29 1.29 0 0 0-1.56.98L.083 25.401A2.54 2.54 0 0 0 1.49 28.28a9.48 9.48 0 0 1 1.939 1.177c.273.217.535.448.783.693.06.056.112.112.169.172.351.356.674.74.964 1.148l.094.135c.3.438.563.902.783 1.386a.23.23 0 0 1 .025.043L27.18 23.72a1.29 1.29 0 0 0 .625-1.736Z" fill="url(&quot;#pi_radar__a&quot;)"></path><path d="m18.464 10.48.467.376a33.82 33.82 0 0 1 8.872 11.127 1.29 1.29 0 0 1-.624 1.736L6.246 33.033a.314.314 0 0 0-.025-.044 9.152 9.152 0 0 0-.783-1.385l-.094-.135-.223-.302a9.414 9.414 0 0 0-.738-.85 9.7 9.7 0 0 0-.952-.865l15.03-18.969.003-.003Z" fill="url(&quot;#pi_radar__b&quot;)"></path><defs><linearGradient id="pi_radar__a" x1="13.977" y1="4.236" x2="13.977" y2="33.033" gradientUnits="userSpaceOnUse"><stop offset="0.26" stop-color="#FF5091"></stop><stop offset="0.91" stop-color="#E03071"></stop></linearGradient><linearGradient id="pi_radar__b" x1="15.682" y1="10.48" x2="15.682" y2="33.033" gradientUnits="userSpaceOnUse"><stop stop-color="#6E00F5"></stop><stop offset="1" stop-color="#9860FE"></stop></linearGradient><linearGradient id="pi_radar__a" x1="13.977" y1="4.236" x2="13.977" y2="33.033" gradientUnits="userSpaceOnUse"><stop offset="0.26" stop-color="#FF5091"></stop><stop offset="0.91" stop-color="#E03071"></stop></linearGradient><linearGradient id="pi_radar__b" x1="15.682" y1="10.48" x2="15.682" y2="33.033" gradientUnits="userSpaceOnUse"><stop stop-color="#6E00F5"></stop><stop offset="1" stop-color="#9860FE"></stop></linearGradient><linearGradient id="pi_radar__a" x1="13.977" y1="4.236" x2="13.977" y2="33.033" gradientUnits="userSpaceOnUse"><stop offset="0.26" stop-color="#FF5091"></stop><stop offset="0.91" stop-color="#E03071"></stop></linearGradient><linearGradient id="pi_radar__b" x1="15.682" y1="10.48" x2="15.682" y2="33.033" gradientUnits="userSpaceOnUse"><stop stop-color="#6E00F5"></stop><stop offset="1" stop-color="#9860FE"></stop></linearGradient></defs></svg>