<svg xmlns:xlink="http://www.w3.org/1999/xlink" class="SVGInline-svg SVGInline--cleaned-svg SVG-svg ProductIcon-svg" height="32" width="32" viewBox="0 0 40 40" fill="none" xmlns="http://www.w3.org/2000/svg"><path d="M12.5 13.75h-1.25C5 13.75 0 19.276 0 25.625S5 37.5 11.25 37.5H25a2.5 2.5 0 0 0 2.5-2.5v-8.75H15a2.5 2.5 0 0 1-2.5-2.5v-10Z" fill="url(&quot;#pi_datapipeline__a&quot;)"></path><path d="M27.5 16.25a2.5 2.5 0 0 0-2.5-2.5H12.5v10a2.5 2.5 0 0 0 2.5 2.5h12.5v-10Z" fill="url(&quot;#pi_datapipeline__b&quot;)"></path><path d="M12.5 5A2.5 2.5 0 0 1 15 2.5h13.75C35 2.5 40 8.026 40 14.375S35 26.25 28.75 26.25H27.5v-10a2.5 2.5 0 0 0-2.5-2.5H12.5V5Z" fill="#9A66FF"></path><defs><linearGradient id="pi_datapipeline__a" x1="12.5" y1="15" x2="6.5" y2="38" gradientUnits="userSpaceOnUse"><stop stop-color="#E03071"></stop><stop offset="1" stop-color="#FF5091"></stop></linearGradient><linearGradient id="pi_datapipeline__b" x1="16.5" y1="26" x2="20.103" y2="11.408" gradientUnits="userSpaceOnUse"><stop stop-color="#9860FE"></stop><stop offset="1" stop-color="#6E00F5"></stop></linearGradient><linearGradient id="pi_datapipeline__a" x1="12.5" y1="15" x2="6.5" y2="38" gradientUnits="userSpaceOnUse"><stop stop-color="#E03071"></stop><stop offset="1" stop-color="#FF5091"></stop></linearGradient><linearGradient id="pi_datapipeline__b" x1="16.5" y1="26" x2="20.103" y2="11.408" gradientUnits="userSpaceOnUse"><stop stop-color="#9860FE"></stop><stop offset="1" stop-color="#6E00F5"></stop></linearGradient><linearGradient id="pi_datapipeline__a" x1="12.5" y1="15" x2="6.5" y2="38" gradientUnits="userSpaceOnUse"><stop stop-color="#E03071"></stop><stop offset="1" stop-color="#FF5091"></stop></linearGradient><linearGradient id="pi_datapipeline__b" x1="16.5" y1="26" x2="20.103" y2="11.408" gradientUnits="userSpaceOnUse"><stop stop-color="#9860FE"></stop><stop offset="1" stop-color="#6E00F5"></stop></linearGradient></defs></svg>