<svg xmlns:xlink="http://www.w3.org/1999/xlink" class="SVGInline-svg SVGInline--cleaned-svg SVG-svg ProductIcon-svg" height="32" width="32" viewBox="0 0 40 40" fill="none" xmlns="http://www.w3.org/2000/svg"><path d="M11.56 16.212a1.275 1.275 0 0 1 1.186-1.741H28.53c0 .316-.059.633-.177.932l-3.507 8.922a2.549 2.549 0 0 1-2.372 1.616H15.29c0-.158-.03-.316-.089-.466l-3.642-9.263Z" fill="url(&quot;#pi_paymentlinks__a&quot;)"></path><path d="M.09 4.74A1.275 1.275 0 0 1 1.276 3H14.7l.055.001.077-.001h7.64a2.55 2.55 0 0 1 2.373 1.616l3.508 8.922c.117.3.176.616.176.933H12.746c-.898 0-1.514.904-1.186 1.74l3.642 9.264c.06.15.089.308.089.466H1.276a1.274 1.274 0 0 1-1.186-1.74l3.642-9.264c.118-.3.118-.633 0-.933L.09 4.741Z" fill="url(&quot;#pi_paymentlinks__b&quot;)"></path><path fill-rule="evenodd" clip-rule="evenodd" d="M15.29 25.941c0 .159-.029.317-.088.467L11.56 35.67a1.275 1.275 0 0 0 1.186 1.741h21.197a2.55 2.55 0 0 0 2.373-1.616l3.507-8.922c.236-.6.236-1.266 0-1.865l-3.507-8.922a2.55 2.55 0 0 0-2.373-1.616H28.53c0 .316-.059.633-.177.932l-3.507 8.922a2.549 2.549 0 0 1-2.372 1.616H15.29Z" fill="#9966FF"></path><defs><linearGradient id="pi_paymentlinks__a" x1="14.062" y1="24.667" x2="29.357" y2="12.559" gradientUnits="userSpaceOnUse"><stop stop-color="#0048E5"></stop><stop offset="0.64" stop-color="#625AF5"></stop><stop offset="1" stop-color="#8A62FC"></stop></linearGradient><linearGradient id="pi_paymentlinks__b" x1="14.265" y1="4.507" x2="14.062" y2="24.667" gradientUnits="userSpaceOnUse"><stop stop-color="#11EFE3"></stop><stop offset="0.33" stop-color="#15E8E2"></stop><stop offset="0.74" stop-color="#1FD3E0"></stop><stop offset="1" stop-color="#21CFE0"></stop></linearGradient><linearGradient id="pi_paymentlinks__a" x1="14.062" y1="24.667" x2="29.357" y2="12.559" gradientUnits="userSpaceOnUse"><stop stop-color="#0048E5"></stop><stop offset="0.64" stop-color="#625AF5"></stop><stop offset="1" stop-color="#8A62FC"></stop></linearGradient><linearGradient id="pi_paymentlinks__b" x1="14.265" y1="4.507" x2="14.062" y2="24.667" gradientUnits="userSpaceOnUse"><stop stop-color="#11EFE3"></stop><stop offset="0.33" stop-color="#15E8E2"></stop><stop offset="0.74" stop-color="#1FD3E0"></stop><stop offset="1" stop-color="#21CFE0"></stop></linearGradient><linearGradient id="pi_paymentlinks__a" x1="14.062" y1="24.667" x2="29.357" y2="12.559" gradientUnits="userSpaceOnUse"><stop stop-color="#0048E5"></stop><stop offset="0.64" stop-color="#625AF5"></stop><stop offset="1" stop-color="#8A62FC"></stop></linearGradient><linearGradient id="pi_paymentlinks__b" x1="14.265" y1="4.507" x2="14.062" y2="24.667" gradientUnits="userSpaceOnUse"><stop stop-color="#11EFE3"></stop><stop offset="0.33" stop-color="#15E8E2"></stop><stop offset="0.74" stop-color="#1FD3E0"></stop><stop offset="1" stop-color="#21CFE0"></stop></linearGradient></defs></svg>