<svg xmlns:xlink="http://www.w3.org/1999/xlink" class="SVGInline-svg SVGInline--cleaned-svg SVG-svg ProductIcon-svg" height="32" width="32" viewBox="0 0 40 40" fill="none" xmlns="http://www.w3.org/2000/svg"><path d="M13.909 5.934C14.253 4.314 15.877 3 17.533 3H37.52c1.656 0 2.72 1.315 2.376 2.934l-6.187 29.11c-.23 1.08-1.312 1.956-2.416 1.956H7.328L13.91 5.934Z" fill="url(&quot;#pi_identity__a&quot;)"></path><path d="M.104 21.934C-.241 20.314.824 19 2.48 19h19.987c1.656 0 3.28 1.315 3.624 2.934l2.786 13.11c.23 1.08 1.312 1.956 2.416 1.956H5.306c-1.104 0-2.186-.877-2.416-1.956L.104 21.934Z" fill="#9A66FF"></path><path d="M31.293 37c-1.104 0-2.186-.877-2.416-1.956l-2.786-13.11C25.746 20.314 24.123 19 22.467 19H11.141L7.328 37h23.965Z" fill="url(&quot;#pi_identity__b&quot;)"></path><defs><linearGradient id="pi_identity__a" x1="23.646" y1="2.993" x2="23.646" y2="37" gradientUnits="userSpaceOnUse"><stop stop-color="#FF5091"></stop><stop offset="1" stop-color="#E03071"></stop></linearGradient><linearGradient id="pi_identity__b" x1="19.311" y1="19" x2="19.311" y2="37" gradientUnits="userSpaceOnUse"><stop stop-color="#6E00F5"></stop><stop offset="1" stop-color="#9860FE"></stop></linearGradient><linearGradient id="pi_identity__a" x1="23.646" y1="2.993" x2="23.646" y2="37" gradientUnits="userSpaceOnUse"><stop stop-color="#FF5091"></stop><stop offset="1" stop-color="#E03071"></stop></linearGradient><linearGradient id="pi_identity__b" x1="19.311" y1="19" x2="19.311" y2="37" gradientUnits="userSpaceOnUse"><stop stop-color="#6E00F5"></stop><stop offset="1" stop-color="#9860FE"></stop></linearGradient><linearGradient id="pi_identity__a" x1="23.646" y1="2.993" x2="23.646" y2="37" gradientUnits="userSpaceOnUse"><stop stop-color="#FF5091"></stop><stop offset="1" stop-color="#E03071"></stop></linearGradient><linearGradient id="pi_identity__b" x1="19.311" y1="19" x2="19.311" y2="37" gradientUnits="userSpaceOnUse"><stop stop-color="#6E00F5"></stop><stop offset="1" stop-color="#9860FE"></stop></linearGradient></defs></svg>