<svg xmlns:xlink="http://www.w3.org/1999/xlink" class="SVGInline-svg SVGInline--cleaned-svg SVG-svg ProductIcon-svg" height="32" width="32" viewBox="0 0 40 40" fill="none" xmlns="http://www.w3.org/2000/svg"><path fill-rule="evenodd" clip-rule="evenodd" d="M2 10.6c0-.91.486-1.75 1.274-2.206l12.215-7.053a2.548 2.548 0 0 1 2.548 0l12.216 7.053a2.548 2.548 0 0 1 1.274 2.207v5.751l-4.797-2.77a2.548 2.548 0 0 0-2.546-.002l-9.11 5.248a2.548 2.548 0 0 0-1.277 2.207v10.489c0 .855.43 1.65 1.135 2.12L3.274 26.913A2.548 2.548 0 0 1 2 24.706V10.601Z" fill="url(&quot;#pi_elements__a&quot;)"></path><path fill-rule="evenodd" clip-rule="evenodd" d="m14.933 33.645.556.32c.789.456 1.76.456 2.548 0l12.216-7.052a2.548 2.548 0 0 0 1.274-2.206v-8.355l4.284 2.475a2.548 2.548 0 0 1 1.273 2.206v10.493c0 .91-.485 1.75-1.273 2.206l-9.08 5.246a2.548 2.548 0 0 1-2.547.002l-9.11-5.248a2.61 2.61 0 0 1-.14-.087Z" fill="#9966FF"></path><path fill-rule="evenodd" clip-rule="evenodd" d="m31.527 16.353-4.797-2.771a2.548 2.548 0 0 0-2.546-.002l-9.11 5.248a2.548 2.548 0 0 0-1.277 2.208v10.488c0 .857.43 1.651 1.137 2.122l.555.32c.789.456 1.76.456 2.548 0l12.216-7.052a2.548 2.548 0 0 0 1.274-2.207v-8.354Z" fill="url(&quot;#pi_elements__b&quot;)"></path><defs><linearGradient id="pi_elements__a" x1="16.763" y1="3.144" x2="16.367" y2="31.828" gradientUnits="userSpaceOnUse"><stop stop-color="#11EFE3"></stop><stop offset="0.33" stop-color="#15E8E2"></stop><stop offset="0.74" stop-color="#1FD3E0"></stop><stop offset="1" stop-color="#21CFE0"></stop></linearGradient><linearGradient id="pi_elements__b" x1="21.108" y1="40.096" x2="29.388" y2="10.16" gradientUnits="userSpaceOnUse"><stop stop-color="#0048E5"></stop><stop offset="0.64" stop-color="#625AF5"></stop><stop offset="1" stop-color="#8A62FC"></stop></linearGradient><linearGradient id="pi_elements__a" x1="16.763" y1="3.144" x2="16.367" y2="31.828" gradientUnits="userSpaceOnUse"><stop stop-color="#11EFE3"></stop><stop offset="0.33" stop-color="#15E8E2"></stop><stop offset="0.74" stop-color="#1FD3E0"></stop><stop offset="1" stop-color="#21CFE0"></stop></linearGradient><linearGradient id="pi_elements__b" x1="21.108" y1="40.096" x2="29.388" y2="10.16" gradientUnits="userSpaceOnUse"><stop stop-color="#0048E5"></stop><stop offset="0.64" stop-color="#625AF5"></stop><stop offset="1" stop-color="#8A62FC"></stop></linearGradient><linearGradient id="pi_elements__a" x1="16.763" y1="3.144" x2="16.367" y2="31.828" gradientUnits="userSpaceOnUse"><stop stop-color="#11EFE3"></stop><stop offset="0.33" stop-color="#15E8E2"></stop><stop offset="0.74" stop-color="#1FD3E0"></stop><stop offset="1" stop-color="#21CFE0"></stop></linearGradient><linearGradient id="pi_elements__b" x1="21.108" y1="40.096" x2="29.388" y2="10.16" gradientUnits="userSpaceOnUse"><stop stop-color="#0048E5"></stop><stop offset="0.64" stop-color="#625AF5"></stop><stop offset="1" stop-color="#8A62FC"></stop></linearGradient></defs></svg>