<svg xmlns:xlink="http://www.w3.org/1999/xlink" class="SVGInline-svg SVGInline--cleaned-svg SVG-svg ProductIcon-svg" height="32" width="32" viewBox="0 0 40 40" fill="none" xmlns="http://www.w3.org/2000/svg"><path d="M5 35V7.005a3 3 0 0 1 5.477-1.693L21.2 21 9.318 38H8a3 3 0 0 1-3-3Z" fill="url(&quot;#pi_sigma__a&quot;)"></path><path d="M8.055 4h25.162a1.5 1.5 0 0 1 1.11 2.51L21.136 21 5.841 4.92a3.17 3.17 0 0 1 .948-.672C7.147 4.083 7.569 4 8.055 4Z" fill="url(&quot;#pi_sigma__b&quot;)"></path><path d="M7.875 38h25.338a1.5 1.5 0 0 0 1.108-2.51L21.111 21 7.136 36.326A1 1 0 0 0 7.876 38Z" fill="#9A66FF"></path><defs><linearGradient id="pi_sigma__a" x1="13.101" y1="38" x2="13.101" y2="12.989" gradientUnits="userSpaceOnUse"><stop stop-color="#9860FE"></stop><stop offset="1" stop-color="#6E00F5"></stop></linearGradient><linearGradient id="pi_sigma__b" x1="20.28" y1="8.418" x2="20.28" y2="19.47" gradientUnits="userSpaceOnUse"><stop stop-color="#FF5091"></stop><stop offset="1" stop-color="#E03071"></stop></linearGradient><linearGradient id="pi_sigma__a" x1="13.101" y1="38" x2="13.101" y2="12.989" gradientUnits="userSpaceOnUse"><stop stop-color="#9860FE"></stop><stop offset="1" stop-color="#6E00F5"></stop></linearGradient><linearGradient id="pi_sigma__b" x1="20.28" y1="8.418" x2="20.28" y2="19.47" gradientUnits="userSpaceOnUse"><stop stop-color="#FF5091"></stop><stop offset="1" stop-color="#E03071"></stop></linearGradient><linearGradient id="pi_sigma__a" x1="13.101" y1="38" x2="13.101" y2="12.989" gradientUnits="userSpaceOnUse"><stop stop-color="#9860FE"></stop><stop offset="1" stop-color="#6E00F5"></stop></linearGradient><linearGradient id="pi_sigma__b" x1="20.28" y1="8.418" x2="20.28" y2="19.47" gradientUnits="userSpaceOnUse"><stop stop-color="#FF5091"></stop><stop offset="1" stop-color="#E03071"></stop></linearGradient></defs></svg>